<?xml version="1.0" standalone="no"?><!DOCTYPE svg PUBLIC "-//W3C//DTD SVG 1.1//EN" "http://www.w3.org/Graphics/SVG/1.1/DTD/svg11.dtd"><svg t="1683004352305" class="icon" viewBox="0 0 1024 1024" version="1.1" xmlns="http://www.w3.org/2000/svg" p-id="4248" xmlns:xlink="http://www.w3.org/1999/xlink" width="200" height="200"><path d="M512 512m-448 0a448 448 0 1 0 896 0 448 448 0 1 0-896 0Z" fill="#FFFFFF" p-id="4249"></path><path d="M585.312 512A73.28 73.28 0 0 1 512 585.28 73.28 73.28 0 0 1 438.72 512a73.28 73.28 0 0 1 146.592 0z" fill="#263238" p-id="4250"></path><path d="M837.376 324.128a375.712 375.712 0 0 0-57.6-75.264l-84.704 48.896a282.24 282.24 0 0 0-88.48-51.2 347.712 347.712 0 0 0-68.48 97.696 414.688 414.688 0 0 1 282.176 98.368l53.312-30.784a375.712 375.712 0 0 0-36.256-87.648z" fill="#1976D2" p-id="4251"></path><path d="M837.408 699.808a375.712 375.712 0 0 0 36.384-87.488l-84.736-48.928a282.24 282.24 0 0 0 0.16-102.4 347.712 347.712 0 0 0-118.848-10.464 414.688 414.688 0 0 1 56.032 293.728l53.312 30.784a375.712 375.712 0 0 0 57.696-75.232z" fill="#42A5F5" p-id="4252"></path><path d="M512 887.68a375.712 375.712 0 0 0 93.984-12.224V777.6a282.208 282.208 0 0 0 88.64-50.976 347.712 347.712 0 0 0-50.368-108.16 414.688 414.688 0 0 1-226.272 195.2v61.568A375.712 375.712 0 0 0 512 887.68z" fill="#1976D2" p-id="4253"></path><path d="M186.688 699.84a375.712 375.712 0 0 0 57.6 75.264l84.736-48.928a282.208 282.208 0 0 0 88.48 51.2 347.712 347.712 0 0 0 68.48-97.696 414.688 414.688 0 0 1-282.176-98.368l-53.408 30.88a375.712 375.712 0 0 0 36.288 87.648z" fill="#42A5F5" p-id="4254"></path><path d="M186.656 324.16A375.712 375.712 0 0 0 150.4 411.648l84.736 48.928a282.208 282.208 0 0 0-0.16 102.4 347.712 347.712 0 0 0 118.848 10.464 414.688 414.688 0 0 1-56.064-293.728l-53.312-30.784a375.712 375.712 0 0 0-57.792 75.232z" fill="#1976D2" p-id="4255"></path><path d="M512 136.288a375.712 375.712 0 0 0-93.984 12.224V246.4a282.208 282.208 0 0 0-88.64 50.976 347.712 347.712 0 0 0 50.368 108.16 414.688 414.688 0 0 1 226.272-195.2V148.736A375.712 375.712 0 0 0 512 136.288z" fill="#42A5F5" p-id="4256"></path></svg>